PathFileType	4	(X/Y/Z)	s07c0403.trc
DataRate	CameraRate	NumFrames	NumMarkers	Units	OrigDataRate	OrigDataStartFrame	OrigNumFrames
200	200	7	48	mm	200	750	2000
Frame#	Time	racr			lacr			c7			jug			rlel			rdr			llel			ldr			s2			lic			ric			lasi			rasi			rpsi			lpsi			rgt			lgt			rth1			rth2			rth3			rth4			rlfc			rmfc			rsh1			rsh2			rsh3			rsh4			rlmal			rcal			rtoe			rmt5			lth1			lth2			lth4			lth3			llfc			lmfc			lsh1			lsh2			lsh3			lsh4			llmal			lcal			ltoe			lmt5			SBIKE			LBIKE			RBIKE			
		X1	Y1	Z1	X2	Y2	Z2	X3	Y3	Z3	X4	Y4	Z4	X5	Y5	Z5	X6	Y6	Z6	X7	Y7	Z7	X8	Y8	Z8	X9	Y9	Z9	X10	Y10	Z10	X11	Y11	Z11	X12	Y12	Z12	X13	Y13	Z13	X14	Y14	Z14	X15	Y15	Z15	X16	Y16	Z16	X17	Y17	Z17	X18	Y18	Z18	X19	Y19	Z19	X20	Y20	Z20	X21	Y21	Z21	X22	Y22	Z22	X23	Y23	Z23	X24	Y24	Z24	X25	Y25	Z25	X26	Y26	Z26	X27	Y27	Z27	X28	Y28	Z28	X29	Y29	Z29	X30	Y30	Z30	X31	Y31	Z31	X32	Y32	Z32	X33	Y33	Z33	X34	Y34	Z34	X35	Y35	Z35	X36	Y36	Z36	X37	Y37	Z37	X38	Y38	Z38	X39	Y39	Z39	X40	Y40	Z40	X41	Y41	Z41	X42	Y42	Z42	X43	Y43	Z43	X44	Y44	Z44	X45	Y45	Z45	X46	Y46	Z46	X47	Y47	Z47	X48	Y48	Z48	
750	3.7500	712.561903	1467.645595	-60.983393	779.475180	1439.225280	-390.201496	739.633741	1514.694460	-232.734269	716.718172	1365.098281	-226.615964	525.375372	1160.283944	24.557095	692.925963	937.003087	-62.581250	562.912962	1180.659811	-544.317100	689.636601	931.329863	-444.315683	182.878775	1247.404052	-262.535600	346.782668	1267.234385	-414.838747	354.699668	1284.618456	-120.425436	364.992835	1189.224413	-388.913635	371.905322	1230.410449	-139.547135	212.626587	1286.274072	-216.845610	224.890181	1286.602583	-328.187002	306.782759	1172.759437	-67.648949	252.918287	1124.225535	-420.330083	435.619619	1083.488794	-64.212717	512.041644	1041.108606	-76.187482	561.743319	971.835318	-70.333104	531.840123	1064.735128	-97.477141	632.442819	857.504919	-102.113744	621.304999	846.281059	-209.550289	520.692967	774.396241	-77.453819	454.859712	718.069005	-98.158038	371.924677	693.373691	-89.216596	463.403851	707.796010	-136.368396	246.996848	633.428200	-83.756371	170.548373	657.492756	-114.330475	338.739378	419.177176	-132.074357	267.036400	460.771815	-60.342099	252.850585	1009.679213	-432.178117	277.930545	925.531041	-437.066973	314.393647	926.372214	-433.346400	260.340935	837.995350	-428.313386	262.905136	668.046558	-401.027345	254.040030	651.614131	-309.841182	188.889921	541.199451	-420.351289	183.643009	461.863914	-399.229201	114.875943	389.699703	-404.660008	180.488105	460.126888	-359.781393	48.673250	270.737866	-398.155997	-27.843978	255.317370	-363.577024	241.867322	147.277392	-362.774426	156.224899	147.118944	-426.313601	-261.910135	964.753710	-238.208181	-82.968974	79.099817	-436.865805	-82.939948	79.406611	-39.382283	
751	3.7550	712.556578	1467.336797	-57.794442	780.559023	1439.745427	-387.875450	741.839827	1514.057895	-229.141678	716.823322	1365.072476	-224.346077	523.638137	1159.818687	23.756050	693.113284	937.705827	-63.095084	564.191207	1181.660219	-542.834085	689.843180	931.290937	-444.042400	183.353312	1251.156753	-263.519804	348.272457	1270.565698	-414.900515	354.295338	1287.186587	-120.297476	366.001399	1192.387387	-388.659861	371.414815	1233.120640	-139.561265	212.927339	1289.813769	-217.588688	225.980584	1290.187672	-328.830960	305.751048	1176.162069	-68.112054	254.278995	1127.482331	-421.117754	434.976792	1086.973575	-64.714161	511.543727	1045.372381	-75.987276	561.388018	975.957546	-71.239420	531.247504	1068.777379	-98.132804	633.691141	862.299845	-103.244499	622.062687	851.201692	-210.715213	523.594718	776.978923	-78.353265	458.774222	719.201615	-98.886793	376.382949	692.982175	-89.574245	467.312021	709.440640	-137.179728	252.388783	630.473563	-83.691732	175.090423	652.649602	-114.079218	349.893465	419.235782	-131.927821	277.132401	458.717036	-60.263178	254.897400	1012.784787	-431.908094	279.933969	928.580467	-436.006644	316.237472	929.439987	-432.016889	261.872712	841.804411	-426.982256	262.480445	670.875917	-399.528363	252.591796	654.931415	-307.886230	187.244918	544.807274	-418.824767	180.320422	465.102524	-397.947134	110.928444	394.525577	-403.761970	177.266171	464.126356	-358.294634	42.659739	276.966916	-397.936368	-34.034393	263.221733	-363.247852	232.498486	147.964326	-362.502889	146.862945	150.337576	-425.957696	-261.950870	964.796517	-238.111198	-82.968704	79.115361	-436.848104	-82.914931	79.401037	-39.385162	
752	3.7600	712.515255	1467.219685	-54.513305	781.556004	1439.933867	-385.617053	744.149747	1513.073473	-225.519379	716.935243	1364.551116	-222.045647	521.761102	1159.262372	22.917695	693.377052	938.526640	-63.567703	565.292927	1182.559012	-541.268016	689.948401	931.194502	-443.833805	183.680619	1255.375974	-264.469442	349.810293	1274.145867	-414.815210	353.736769	1290.004518	-120.139654	366.899920	1195.849143	-388.196010	370.783890	1235.929102	-139.360036	213.339173	1293.673486	-218.349561	226.932574	1294.108078	-329.400099	304.491797	1179.560073	-68.573951	255.574383	1130.746558	-422.008234	433.653389	1090.271898	-65.335159	510.362504	1048.805317	-76.826282	560.269114	979.375359	-72.298171	530.137238	1072.261786	-98.799358	634.066129	866.677317	-104.536689	621.668432	855.720133	-211.990778	525.658119	779.176279	-79.253875	461.915629	719.903472	-99.586753	380.044644	692.060000	-89.839138	470.576558	710.449094	-137.896885	257.193193	626.871064	-83.662304	179.060397	646.977326	-113.754194	360.859580	418.943818	-132.123947	287.059279	456.072660	-60.168039	257.318196	1015.720959	-431.464252	282.573902	931.615650	-434.683127	318.768832	932.526500	-430.352182	263.560377	845.079944	-426.796929	263.911212	673.374475	-397.845087	252.637867	658.271255	-305.719112	186.867424	548.566977	-417.232560	177.712319	468.595150	-396.483004	107.679901	399.662036	-402.698766	174.851064	468.223184	-356.731088	36.924621	283.700285	-397.613942	-40.003480	271.483324	-362.862974	223.246936	149.256876	-362.263453	137.700332	154.279098	-425.501793	-261.932016	964.873264	-237.950492	-82.971103	79.215193	-436.840849	-82.935201	79.464019	-39.355773	
753	3.7650	713.164699	1466.174553	-51.426018	782.687948	1439.766556	-383.299257	746.488574	1511.557470	-222.247219	717.030255	1363.567507	-220.083309	519.881972	1158.565239	22.072001	693.587812	939.622117	-63.742823	566.266865	1183.230008	-539.716026	689.980442	931.051399	-443.635403	183.875808	1259.716269	-265.459060	351.207039	1277.700064	-414.651216	353.048398	1292.802535	-119.983449	367.574551	1199.386540	-387.685936	369.974783	1238.973634	-139.185575	213.635272	1297.902702	-219.073203	227.718953	1298.338281	-330.034253	303.113899	1183.032754	-69.026360	256.759328	1134.126846	-422.914172	431.775863	1093.295861	-66.102202	508.573511	1051.708938	-77.793597	558.340248	982.200389	-73.515920	528.514942	1075.469647	-99.218909	633.691134	870.355967	-105.895309	620.355055	859.529388	-213.243046	526.768435	780.944648	-80.220932	464.387472	720.141046	-100.070764	383.049516	690.560857	-90.148565	473.063271	710.799086	-138.476519	261.401254	622.567451	-83.595362	182.881546	640.172680	-113.294882	371.663149	418.276152	-132.206344	296.657270	452.864579	-60.093543	260.012923	1018.408178	-430.937246	285.863857	934.546631	-433.146384	321.965876	935.785034	-428.539747	266.939458	848.200289	-426.179262	267.171362	675.669043	-396.169177	254.239801	661.497682	-303.565698	187.958847	552.122718	-415.625814	175.805698	472.307403	-394.858731	105.234865	405.240945	-401.603442	173.626439	472.530814	-355.241600	31.481612	291.246021	-397.122084	-45.453116	280.537233	-362.444393	214.117258	151.267148	-362.349992	128.914618	158.781765	-424.936651	-261.884326	964.965461	-237.782746	-82.902021	79.395237	-436.905927	-82.930696	79.692658	-39.286162	
754	3.7700	714.198510	1464.534779	-48.645962	783.871724	1439.172044	-381.040085	748.799253	1509.624096	-219.254522	717.261076	1362.432787	-217.930039	518.016555	1157.920284	21.231931	693.899781	940.427827	-63.914999	567.108623	1183.777292	-538.157133	689.978789	930.854533	-443.391792	184.012128	1264.350194	-266.342315	352.443923	1281.673831	-414.371902	352.316415	1295.730945	-119.837717	368.137579	1202.878358	-386.890032	369.111584	1242.090602	-138.980839	213.894236	1302.213285	-219.739363	228.602350	1302.823667	-330.447784	301.535768	1186.420521	-69.486572	257.949675	1137.529378	-423.779359	429.540733	1096.072721	-66.885362	506.282301	1054.217013	-78.701606	555.699732	984.574886	-74.787584	526.554999	1078.288821	-99.513760	632.312613	873.392826	-107.077651	618.027360	862.581281	-214.454943	526.839793	782.218668	-81.152712	465.869511	719.793483	-100.528687	385.375250	688.470845	-90.595678	474.829884	710.312717	-138.878896	264.913425	617.252706	-83.505471	184.729477	633.041046	-112.882221	382.045321	417.580032	-132.359413	305.778609	449.056255	-59.872866	263.098391	1020.921872	-430.574790	289.822586	937.291121	-431.435638	325.727376	939.090028	-426.365795	271.141274	851.141779	-425.608246	272.145137	677.543791	-394.375410	257.459186	664.575670	-301.639896	190.177423	555.979096	-414.141456	174.583547	476.215944	-393.111172	103.642239	411.177180	-400.498964	171.284076	477.235892	-353.412185	26.629676	299.442648	-396.682681	-50.367046	290.224079	-362.148702	205.331541	153.407682	-361.616956	120.505226	163.747499	-424.209330	-261.837571	965.066431	-237.566049	-82.887521	79.523997	-436.874413	-82.941077	79.740107	-39.270113	
755	3.7750	715.573141	1462.285858	-46.170891	784.934945	1438.205675	-378.821983	751.024743	1507.331014	-216.662698	717.484748	1360.807621	-215.925063	516.159622	1157.142435	20.307552	694.237144	941.299299	-64.065396	567.778838	1184.211587	-536.668995	689.904775	930.576049	-443.048624	184.072506	1268.944261	-267.232165	353.641682	1285.484836	-413.869418	351.462170	1298.689081	-119.647442	368.454340	1206.350198	-386.140474	368.101393	1245.134139	-138.833449	214.127773	1306.609359	-220.312608	229.449655	1307.236430	-330.847720	299.783014	1189.788787	-69.994195	259.061567	1140.862112	-424.540699	426.955000	1098.512341	-67.601121	503.543955	1056.466639	-79.574521	552.609511	986.546008	-75.944884	524.136036	1080.697234	-99.744800	630.929831	874.959785	-109.339618	614.848026	864.768784	-215.636299	525.947121	782.716477	-82.055706	466.480244	718.525099	-100.801699	386.715159	685.610847	-90.824426	475.649138	709.095831	-139.109194	267.639992	611.211848	-83.394432	186.562553	624.385942	-112.441246	391.946657	416.351379	-132.421024	314.516238	444.618399	-59.600097	266.171974	1023.198425	-429.784571	294.205189	940.114945	-429.574438	329.977339	942.336254	-423.944539	276.224536	853.703724	-424.572500	278.464726	679.335442	-392.685537	262.251432	667.446844	-299.931710	193.696199	559.569348	-412.645754	174.027062	480.309101	-391.292617	103.108489	417.222837	-399.576113	171.563446	481.762109	-351.683646	22.562169	308.261034	-396.253387	-54.549044	300.517880	-361.866664	196.889971	155.781376	-360.627394	115.352891	165.526568	-418.612122	-261.802266	965.151978	-237.366292	-82.869048	79.627799	-436.858168	-82.941393	79.811784	-39.248178	
756	3.7800	717.370876	1459.505752	-43.941885	786.013559	1436.737321	-376.594615	753.040352	1504.668193	-214.221344	717.623416	1358.891756	-214.291762	514.339509	1156.243058	19.388784	694.538794	942.066616	-64.010245	568.335705	1184.500785	-535.201588	691.816305	933.610678	-449.378089	183.947466	1273.695079	-268.070064	354.618446	1289.260418	-413.584230	350.599158	1301.290235	-119.601269	369.058947	1209.200162	-385.471766	367.064690	1248.176304	-138.689183	214.315691	1311.012343	-220.890941	230.212352	1311.567792	-331.283483	297.838855	1193.138120	-70.528363	260.179340	1143.995098	-425.306342	424.064693	1100.567277	-68.308341	500.532875	1058.231089	-80.403923	549.241692	988.124542	-76.926238	521.310367	1082.605733	-100.030134	627.720470	876.326052	-110.300566	611.177869	865.653312	-216.678269	523.881082	782.564697	-82.951543	466.107235	716.578966	-100.949880	387.056768	682.052050	-90.946619	475.618112	706.930638	-139.169435	269.673673	604.299340	-83.246090	188.949851	613.999524	-111.917228	401.244503	415.001811	-132.404160	322.668658	439.709001	-59.347806	269.511077	1025.443820	-429.275554	298.992057	942.905385	-427.795151	334.599139	945.420208	-420.769162	283.365573	855.494183	-421.097695	285.945138	681.150268	-391.117756	268.288942	670.127494	-298.290179	198.140115	563.399004	-411.286698	174.116424	484.585811	-389.468814	103.226599	423.938729	-398.627175	172.929314	486.705324	-350.286274	19.122802	317.749800	-395.801892	-58.044528	311.393932	-361.710324	188.751795	158.518792	-360.007653	108.014555	171.258054	-417.715331	-261.658580	965.176095	-237.264370	-82.861680	79.730316	-436.836020	-82.919762	79.835823	-39.237251	
